<?xml version="1.0" encoding="UTF-8"?>
<svg id="Layer_2" data-name="Layer 2" xmlns="http://www.w3.org/2000/svg" preserveAspectRatio="xMidYMid meet" viewBox="0 0 949.3313 867.4136">
  <g id="text-safe-area" opacity="0">
    <rect x="151.6173" y="245.6746" width="612.9412" height="383.698" fill="#036d56"/>
  </g>
  <g id="shield-base">
    <g>
      <path d="M471.9193,867.4136h-.9893c-26.523-11.155-51.8981-24.4809-80.1236-31.175-95.0832-22.5502-185.3765-5.9809-270.02-67.3413C12.2641,690.2265-26.8251,564.8503,21.024,437.8316c12.4644-33.0877,30.4521-64.8768,32.4418-101.1103,1.3973-25.4456.898-57.7353-4.6739-82.4625-8.1522-36.1781-27.7343-66.3731-48.7918-96.1383v-3.957L133.2298.762l2.543.2902c31.045,16.7221,63.3248,31.658,99.2076,33.4017,51.5072,2.5029,79.2536-8.1681,127.1078-19.2936,54.3765-12.6419,101.6439-18.993,157.6882-12.2261,71.213,8.5984,127.4272,37.9906,200.9564,30.5329,33.8785-3.4361,63.3973-16.1022,92.2023-33.4672l1.8141.7422c46.3175,50.848,91.2406,103.0106,134.5759,156.4425l.0063,1.8834c-29.2312,36.1313-54.4823,83.7075-56.9796,131.0766-1.1353,21.5332-1.0737,51.0184,3.3218,71.9431,4.796,22.8315,16.135,41.1922,24.8839,62.1727,61.0868,146.4916,7.5944,296.8609-134.0051,367.4954-71.582,35.7075-154.3807,25.8781-230.5526,44.4819-29.2675,7.1481-56.1358,20.4557-84.0804,31.1757ZM465.7792,13.9805c-40.8086,1.9891-83.2456,11.6733-122.6882,21.7545-13.1673,3.3654-33.2826,11.4685-45.7495,12.6208-22.1465,2.047-62.9171,1.1642-84.8388-2.3081-26.9938-4.2757-50.5896-18.0085-76.2671-26.2736-29.1371,31.1994-57.7458,63.1553-85.3008,95.7919-9.0193,10.6826-22.1245,24.5096-29.5692,35.7245-2.673,4.0266-3.4541,4.287-1.4729,9.2076,4.8632,12.0786,16.3471,27.2451,22.8195,39.4953,23.2738,44.0503,30.0903,88.787,25.5429,138.6554-4.8189,52.8449-35.2374,94.2377-46.1818,145.7375-19.8176,93.2543,9.4208,193.2062,83.3166,254.4002,77.6558,64.3077,135.6752,60.8215,230.3678,73.3551,48.5132,6.4212,91.2393,18.0876,135.6791,38.524,20.6151-5.672,39.9075-15.4108,60.3184-21.8525,82.9023-26.1642,173.856-14.0437,253.4673-52.2363,112.9421-54.1827,173.7837-185.544,136.1244-306.6109-12.9871-41.7507-35.7104-82.8761-41.6749-126.5019-7.148-52.2829,1.7118-102.8041,27.0448-148.7625,3.6269-6.5798,22.7406-34.2197,22.289-38.9941-.2499-2.6425-22.159-28.3504-25.7549-32.6811-23.816-28.6826-49.9932-60.8474-75.647-87.5869-3.0603-3.1898-13.7285-14.774-17.6452-14.5831-23.1916,7.4654-44.7789,19.4148-68.9152,24.0162-30.6887,5.8505-73.4583,6.9009-103.9172-.0072-55.952-12.69-112.6553-33.7456-171.3471-30.8849Z" fill="#036d56"/>
      <path d="M465.7792,13.9805c58.6918-2.8607,115.3952,18.1949,171.3471,30.8849,30.4589,6.9081,73.2285,5.8577,103.9172.0072,24.1363-4.6014,45.7236-16.5508,68.9152-24.0162,3.9167-.1909,14.5849,11.3933,17.6452,14.5831,25.6538,26.7394,51.831,58.9042,75.647,87.5869,3.5959,4.3307,25.5049,30.0386,25.7549,32.6811.4516,4.7744-18.6622,32.4143-22.289,38.9941-25.333,45.9584-34.1929,96.4796-27.0448,148.7625,5.9645,43.6258,28.6878,84.7512,41.6749,126.5019,37.6593,121.0668-23.1823,252.4282-136.1244,306.6109-79.6113,38.1926-170.5649,26.0722-253.4673,52.2363-20.411,6.4417-39.7033,16.1805-60.3184,21.8525-44.4398-20.4364-87.1659-32.1027-135.6791-38.524-94.6925-12.5336-152.712-9.0473-230.3678-73.3551C31.4941,677.5926,2.2557,577.6407,22.0733,484.3864c10.9443-51.4999,41.3629-92.8926,46.1818-145.7375,4.5474-49.8684-2.2691-94.6052-25.5429-138.6554-6.4724-12.2502-17.9564-27.4167-22.8195-39.4953-1.9812-4.9206-1.2001-5.181,1.4729-9.2076,7.4447-11.2149,20.5499-25.0418,29.5692-35.7245,27.5549-32.6366,56.1637-64.5925,85.3008-95.7919,25.6776,8.2651,49.2733,21.998,76.2671,26.2736,21.9217,3.4723,62.6922,4.3551,84.8388,2.3081,12.4669-1.1523,32.5822-9.2554,45.7495-12.6208,39.4427-10.0812,81.8797-19.7654,122.6882-21.7545ZM853.8079,330.2502c3.4274-45.8301,8.704-91.9401,27.5302-134.2151,2.6593-5.9715,19.2477-35.0739,18.7998-38.1704-.6251-4.3211-19.8964-26.5089-24.0553-31.4146-21.7236-25.6249-45.2745-49.7886-67.299-75.1595l-4.2076-2.7945c-23.613,5.4041-46.4659,15.4225-70.4699,20.1064-26.9776,5.2641-76.6324,4.0145-103.5251-2.3536-33.5479-7.9441-58.845-19.4852-94.9892-24.7196-77.7821-11.2643-128.6446-2.0493-202.412,19.9084-39.0989,11.6383-91.8896,13.9291-131.5657,4.4008-16.9745-4.0765-41.3529-15.4463-56.9413-17.2819-2.0208-.2379-4.0149-.8127-5.7257.6968-22.0068,24.494-43.8474,49.2114-65.2548,74.229-3.5159,4.1089-27.1874,31.0097-27.1838,33.1567,18.6593,33.756,35.0864,67.2165,40.39,106.0114,3.0667,22.4321,2.5838,45.0904,4.1215,67.5996h762.7878ZM857.6665,353.105l-765.993-3.1143c-4.8374,12.7401-8.1898,26.0204-12.7729,38.8726-12.9234,36.2404-32.7758,72.0874-39.0392,110.3416-16.6431,101.6499,32.2601,205.9487,123.36,253.9714,77.2198,40.7059,170.3371,28.8582,253.0634,53.6294,11.3972,3.4127,44.5714,18.0086,53.1562,18.0632,13.6149.0866,40.8575-11.8584,55.1449-16.0848,120.706-35.706,234.1417-4.9197,327.7518-109.5295,36.662-40.97,62.065-107.5224,58.8429-162.736-3.8069-65.2349-39.4867-120.8879-53.514-183.4137Z" fill="#fbfcfb"/>
      <path d="M857.6665,353.105c14.0273,62.5258,49.7071,118.1788,53.514,183.4137,3.2221,55.2136-22.1808,121.766-58.8429,162.736-93.6102,104.6098-207.0458,73.8235-327.7518,109.5295-14.2874,4.2264-41.53,16.1714-55.1449,16.0848-8.5848-.0546-41.759-14.6505-53.1562-18.0632-82.7263-24.7712-175.8436-12.9236-253.0634-53.6294-91.0999-48.0227-140.0031-152.3215-123.36-253.9714,6.2634-38.2542,26.1158-74.1012,39.0392-110.3416,4.5831-12.8522,7.9355-26.1325,12.7729-38.8726l765.993,3.1143Z" fill="#036d56"/>
      <path d="M853.8079,330.2502H91.0201c-1.5377-22.5092-1.0548-45.1675-4.1215-67.5996-5.3037-38.7948-21.7308-72.2554-40.39-106.0114-.0036-2.147,23.6679-29.0478,27.1838-33.1567,21.4073-25.0176,43.2479-49.735,65.2548-74.229,1.7108-1.5096,3.7049-.9348,5.7257-.6968,15.5883,1.8356,39.9668,13.2054,56.9413,17.2819,39.6761,9.5283,92.4669,7.2375,131.5657-4.4008,73.7674-21.9578,124.6299-31.1727,202.412-19.9084,36.1442,5.2344,61.4412,16.7755,94.9892,24.7196,26.8927,6.3681,76.5475,7.6177,103.5251,2.3536,24.004-4.6839,46.8569-14.7023,70.4699-20.1064l4.2076,2.7945c22.0245,25.3709,45.5754,49.5345,67.299,75.1595,4.1589,4.9057,23.4301,27.0936,24.0553,31.4146.448,3.0965-16.1405,32.1989-18.7998,38.1704-18.8262,42.275-24.1029,88.385-27.5302,134.2151ZM647.8018,126.7367c-3.4865.3629-18.2878,3.4476-20.5455,5.1784-3.3132,2.5399-3.2268,10.4532,1.5028,11.3386,3.4914.6536,30.0608-.9391,32.1809-2.3857,1.8243-1.2448.1991-11.5205-.9448-13.0193-1.7813-2.3341-9.2228-1.4212-12.1934-1.112ZM506.5465,213.5185v18.3011c0,2.0461-10.0285,3.5439-12.2237,3.4021-25.4502-1.6432-26.4493-39.8073-17.855-57.2199,4.347-8.8073,10.6692-12.2487,20.5964-10.888,4.6669.6397,11.8197,6.1835,14.8863,5.8758,2.9251-.2935,9.213-7.1985,7.9335-10.8584-2.8521-8.1586-19.8086-12.9844-27.6365-12.9509-53.3757.2278-50.2255,95.6739-7.9498,108.1792,15.3535,4.5402,31.2648,1.7584,45.6547-4.3746v-31.9593h-29.6778ZM533.4856,262.7948c-4.0101,1.0246-8.4329,3.1314-11.7589,5.6543-8.0458,6.1028-13.4408,15.8175-13.2525,25.9913l.1978,111.5408c.5004,5.7232,10.253,7.3383,14.5756,3.2466,2.6499-2.5086,2.0134-6.0571,2.4256-9.1766l.115-99.9117c.9947-9.6693,7.3578-16.6272,16.8117-18.1401,9.4128-1.5063,59.7627-.9996,64.7774-.1543,9.3598,1.5772,15.5831,8.9294,16.4667,18.2944l.1268,98.6414c.7258,3.1914-.5841,6.2784,1.3571,9.3848,4.6127,7.3812,16.6575,3.214,16.6575-4.4163v-108.3825c0-15.5332-13.9379-31.7688-29.5211-33.8869-14.4779-1.9678-53.775-2.2862-68.9687,1.3148Z" fill="#036d56"/>
      <path d="M911.1805,536.5187c-3.8071-65.2349-39.4868-120.8879-53.5142-183.4137l-3.8584-22.8548c3.4272-45.8301,8.7041-91.9401,27.5303-134.2151,2.6592-5.9715,19.2476-35.0739,18.7998-38.1704-.6255-4.321-19.8965-26.5089-24.0552-31.4146-21.7236-25.6249-45.2749-49.7886-67.2993-75.1595l-4.2075-2.7944c-23.6133,5.4041-46.4658,15.4225-70.4702,20.1064-26.9775,5.2641-76.6323,4.0145-103.5249-2.3536-33.5479-7.9441-58.8447-19.4853-94.9893-24.7196-77.7822-11.2643-128.6445-2.0494-202.4121,19.9084-39.0986,11.6382-91.8896,13.9291-131.5654,4.4008-16.9746-4.0765-41.353-15.4464-56.9414-17.2819-2.0205-.2379-4.0146-.8127-5.7256.6968-22.0068,24.494-43.8477,49.2114-65.2549,74.229-3.5156,4.1089-27.1875,31.0097-27.1836,33.1567,18.6592,33.756,35.0864,67.2166,40.3896,106.0114,3.0669,22.4321,2.584,45.0903,4.1221,67.5995l.6533,19.7405c-4.8379,12.7401-8.1899,26.0204-12.7729,38.8726-12.9233,36.2404-32.7759,72.0873-39.0396,110.3416-16.6431,101.6498,32.2603,205.9487,123.3604,253.9714,77.2197,40.7059,170.3369,28.8582,253.063,53.6294,11.3975,3.4127,44.5718,18.0087,53.1562,18.0632,13.6152.0866,40.8574-11.8584,55.145-16.0847,120.7061-35.7061,234.1416-4.9197,327.752-109.5295,36.6621-40.97,62.0649-107.5224,58.8428-162.736Z" fill="#036d56"/>
    </g>
  </g>
  <g id="road-number-sample">
    <path d="M559.2899,256.2628l-3.3312,53.2938h-110.4845c-1.3323,0-2.1933,5.1934-2.4809,6.4017-2.7495,30.3307-2.9368,60.8931-4.7256,91.3033,11.8503-9.2553,17.9072-16.5783,33.8682-18.8624,80.6086-11.5351,102.8825,57.9759,99.4141,124.9409-3.1902,61.5929-43.5459,114.958-108.2568,116.0324-34.7313.5767-60.608-11.0446-85.5789-34.4775l-.0332-4.4603,21.2652-40.9872c21.6119,14.955,43.4302,27.1238,70.9436,24.3444,43.6074-4.4052,48.0574-88.3435,30.3518-116.9253-12.7532-20.5872-39.5089-23.8827-55.2953-4.6107-3.1019,3.7868-11.443,20.665-14.1424,21.4544-6.3487,1.8566-33.8751-9.1009-42.4639-8.7619l5.5005-208.6858h165.4492Z" fill="#fefefe"/>
  </g>
</svg>