<svg xmlns="http://www.w3.org/2000/svg" viewBox="0 0 893.2065 866.042" preserveAspectRatio="xMidYMid meet"><g id="shield-base-a"><path id="path2939" d="M183.1572.6271L.7714,161.772c57.4576,32.458,96.2592,94.0865,96.2592,164.7852,0,34.8422-9.4575,67.4594-25.8943,95.4898-3.6034,6.1451-7.588,12.0365-11.8401,17.7132-1.7177,2.8573-3.396,5.7513-4.9912,8.6877-1.7678,3.2543-3.4535,6.5417-5.0663,9.8886-1.6127,3.3469-3.1444,6.7541-4.5971,10.1888-1.4527,3.4347-2.8213,6.8963-4.1093,10.414-1.288,3.5177-2.503,7.0809-3.6214,10.6767-1.1185,3.5958-2.152,7.2327-3.0961,10.9019-.944,3.6692-1.787,7.3705-2.5519,11.1083-.7648,3.7378-1.4456,7.5132-2.0265,11.3147-.5808,3.8015-1.0715,7.6419-1.4636,11.5023-.392,3.8604-.6834,7.7379-.8819,11.6524s-.3002,7.8574-.3002,11.8213.1018,7.9067.3002,11.8213.4898,7.792.8819,11.6524c.3921,3.8604.8828,7.7008,1.4636,11.5023.5809,3.8015,1.2617,7.5768,2.0265,11.3147.7649,3.7377,1.6079,7.4389,2.5519,11.1083.9441,3.6692,1.9776,7.306,3.0961,10.9019,1.1184,3.5959,2.3335,7.1593,3.6214,10.6767,1.288,3.5178,2.6566,6.9794,4.1093,10.414,1.4527,3.4347,2.9845,6.8418,4.5971,10.1888,1.6127,3.3466,3.2985,6.6343,5.0663,9.8886,1.7678,3.2543,3.6172,6.4688,5.5354,9.6259,1.9182,3.1567,3.9033,6.271,5.9669,9.3257,2.0637,3.0546,4.2129,6.0401,6.4173,8.9879,2.2044,2.9473,4.471,5.8519,6.8113,8.6877,2.3403,2.8358,4.7528,5.6121,7.2242,8.3312,2.4714,2.7191,5.0018,5.3768,7.5994,7.9747,2.5977,2.5975,5.2556,5.128,7.9747,7.5994,2.7191,2.4713,5.4954,4.8841,8.3312,7.2241,2.8357,2.3404,5.7401,4.607,8.6877,6.8113,2.9477,2.2043,5.9333,4.3536,8.988,6.4173s6.1688,4.0488,9.3257,5.9669c3.1569,1.9182,6.3716,3.7673,9.6259,5.5354,3.2543,1.7676,6.5418,3.4537,9.8886,5.0662,3.3469,1.6129,6.7542,3.1445,10.1889,4.5972,3.4347,1.4527,6.8963,2.8214,10.414,4.1093,1.6811.6157,3.4046,1.1494,5.1038,1.7263,4.2002,1.1774,8.4099,2.3246,12.6469,3.4151,4.8024,1.2352,9.619,2.4272,14.4671,3.5464,4.1012.9467,8.2311,1.8228,12.3654,2.6832.7528.1565,1.4982.3339,2.2517.4878,4.8921,1.0013,9.7952,1.952,14.7298,2.8334,4.9346.8815,9.9043,1.6976,14.8798,2.4581,4.9755.7599,9.9588,1.4637,14.9736,2.1016,5.0149.6372,10.0524,1.2128,15.105,1.7263,5.0526.5129,10.1288.9635,15.2175,1.351,4.8831.3712,9.7773.6652,14.6922.9194.3899,0,.7728-.0372,1.1634-.0372,4.4405,0,8.822.24,13.1723.6004,48.8096,4.0432,91.5319,30.2286,118.5508,67.813,27.0189-37.5844,69.7411-63.7697,118.5508-67.813,4.3503-.3604,8.7318-.6004,13.1723-.6004.3906,0,.7734.0372,1.1634.0372,4.915-.2542,9.8091-.5481,14.6922-.9194,5.0888-.3874,10.165-.8381,15.2176-1.351,5.0526-.5134,10.0901-1.0891,15.105-1.7263,5.0148-.6378,9.9981-1.3417,14.9737-2.1016,4.9755-.7606,9.9452-1.5767,14.8798-2.4581,4.9346-.8815,9.8377-1.8321,14.7297-2.8334.7535-.1539,1.4989-.3314,2.2517-.4878,4.1345-.8604,8.2643-1.7366,12.3655-2.6832,4.848-1.1192,9.6645-2.3112,14.467-3.5464,4.2368-1.0904,8.4467-2.2377,12.6468-3.4151,1.6992-.5769,3.4227-1.1106,5.1038-1.7263,3.5178-1.2879,6.9794-2.6566,10.414-4.1093,3.4347-1.4527,6.8419-2.9843,10.1888-4.5972,3.3467-1.6125,6.6343-3.2986,9.8886-5.0662,3.2543-1.768,6.469-3.6173,9.6259-5.5354,3.1567-1.9182,6.271-3.9033,9.3257-5.9669,3.0546-2.0637,6.0402-4.213,8.9879-6.4173,2.9476-2.2044,5.8519-4.4709,8.6877-6.8113,2.8358-2.3401,5.6121-4.7528,8.3312-7.2241,2.7191-2.4714,5.377-5.002,7.9747-7.5994,2.5976-2.5979,5.128-5.2557,7.5994-7.9747,2.4713-2.7192,4.8839-5.4955,7.2241-8.3312,2.3404-2.8358,4.607-5.7403,6.8113-8.6877,2.2043-2.9479,4.3536-5.9334,6.4173-8.9879,2.0637-3.0547,4.0488-6.169,5.9669-9.3257,1.9182-3.1572,3.7675-6.3717,5.5354-9.6259,1.7677-3.2544,3.4535-6.542,5.0662-9.8886,1.6127-3.3471,3.1445-6.7542,4.5972-10.1888,1.4527-3.4348,2.8213-6.8961,4.1093-10.414,1.288-3.5175,2.5031-7.0809,3.6214-10.6767,1.1184-3.5959,2.152-7.2327,3.0961-10.9018.944-3.6693,1.7869-7.3705,2.5519-11.1083.7647-3.7379,1.4456-7.5132,2.0265-11.3147.5807-3.8015,1.0715-7.6418,1.4635-11.5023.3921-3.8605.6835-7.7379.8819-11.6524.1984-3.9146.3002-7.8574.3002-11.8213s-.1018-7.9068-.3002-11.8213c-.1984-3.9146-.4898-7.792-.8819-11.6524-.3921-3.8605-.8828-7.7008-1.4635-11.5023-.5809-3.8015-1.2618-7.5769-2.0265-11.3147-.765-3.7378-1.6079-7.4391-2.5519-11.1083-.9442-3.6692-1.9776-7.306-3.0961-10.9019-1.1184-3.5959-2.3335-7.159-3.6214-10.6767-1.288-3.5177-2.6566-6.9793-4.1093-10.414-1.4527-3.4347-2.9844-6.842-4.5972-10.1888-1.6126-3.3469-3.2984-6.6344-5.0662-9.8886-1.5953-2.9365-3.2735-5.8304-4.9913-8.6877-4.2521-5.6767-8.2366-11.5681-11.8401-17.7132-16.4368-28.0304-25.8943-60.6476-25.8943-95.4898,0-70.6987,38.8015-132.3272,96.2592-164.7852L710.0493.6271c-34.0868,33.2511-80.3428,54.0402-131.7231,54.0402-51.2085,0-97.667-20.9857-131.7231-54.0402-34.0561,33.0545-80.5145,54.0402-131.7231,54.0402-51.3803,0-97.6363-20.7891-131.7231-54.0402h.0001Z" fill="#fff" stroke="#010101" stroke-width=".9"/><path id="rect3889" d="M119.6599,264.0732h655.0757v20.2651H119.6599v-20.2651Z" fill="#010101"/><path id="text2878" d="M231.939,230.298h-12.5825l-20.4869-64.0418v64.0418h-13.5504v-108.0806h13.5504l19.3577,58.8797v-58.8797h13.7117v108.0806ZM265.2101,230.298h-13.5504v-108.0806h13.5504v108.0806ZM307.5147,133.9934c-2.9037-.1075-5.3234,1.6131-7.2591,5.1621-1.8282,3.5489-3.065,16.0239-3.7102,37.4249.6452,20.003,1.9895,31.7789,4.0329,35.3278,2.0433,3.5489,4.6243,5.2158,7.7431,5.0007,4.7319,0,7.4205-3.4951,8.0657-10.4854h13.3891c0,8.2808-2.2046,14.6796-6.6139,19.1964-4.3017,4.4093-9.3562,6.6139-15.1635,6.6139-9.0336,0-15.3786-4.1404-19.0351-12.4212-3.6565-8.3884-5.5922-22.8529-5.8073-43.3935.2151-22.0463,2.3659-36.8872,6.4526-44.5227,4.0866-7.6355,10.2166-11.4533,18.3898-11.4533,5.3771,0,10.3241,2.1509,14.8409,6.4526,4.6244,4.1942,6.9365,10.1628,6.9365,17.9059h-13.3891c-.2151-7.0978-3.1725-10.7005-8.8723-10.8081h0ZM374.9844,185.2913l-5.9686-35.0052-5.8073,35.0052h11.7759ZM398.2136,230.298h-14.357l-6.13-28.8753h-17.7446l-6.13,28.8753h-14.0343l22.4227-108.0806h13.5504l22.4227,108.0806ZM455.8431,152.5445c-.1075,13.1202-4.3017,21.885-12.5825,26.2942l12.2599,51.4593h-13.873l-11.292-50.4914h-7.5818v50.4914h-13.5504v-108.0806h21.1322c7.2054,0,13.2815,2.6348,18.2285,7.9044,4.947,5.2696,7.3667,12.7438,7.2591,22.4227ZM441.8088,152.2219c0-5.4847-1.1292-9.5175-3.3876-12.0986-2.1509-2.581-5.0545-3.8715-8.711-3.8715h-6.9365v29.6818h8.0657c3.4414-.3226,6.13-1.7207,8.0657-4.1942,1.9358-2.4735,2.9037-5.646,2.9037-9.5175ZM501.858,185.2913l-5.9686-35.0052-5.8073,35.0052h11.7759ZM525.0873,230.298h-14.357l-6.13-28.8753h-17.7446l-6.13,28.8753h-14.0343l22.4227-108.0806h13.5504l22.4227,108.0806ZM559.6489,133.9934c-2.9037-.1075-5.3234,1.6131-7.2592,5.1621-1.8282,3.5489-3.065,16.0239-3.7102,37.4249.6453,20.003,1.9895,31.7789,4.0329,35.3278,2.0433,3.5489,4.6243,5.2158,7.7431,5.0007,4.7319,0,7.4205-3.4951,8.0657-10.4854v-14.357h-9.0336v-14.357h22.4227v28.7139c0,8.2808-2.2046,14.6796-6.6139,19.1964-4.3017,4.4093-9.3562,6.6139-15.1636,6.6139-9.0336,0-15.3786-4.1404-19.0351-12.4212-3.6564-8.3884-5.5922-22.8529-5.8073-43.3935.2151-22.0463,2.3659-36.8872,6.4526-44.5227,4.0867-7.6355,10.2165-11.4533,18.3898-11.4533,5.3772,0,10.3241,2.1509,14.8409,6.4526,4.6244,4.1942,6.9365,10.1628,6.9365,17.9059h-13.3891c-.2151-7.0978-3.1725-10.7005-8.8723-10.8081h0ZM644.5405,203.8425c0,6.9903-1.1292,12.6363-3.3876,16.938-4.0866,7.6356-10.6467,11.4533-19.6803,11.4533-10.7543,0-17.9596-4.947-21.6161-14.8409-1.2905-3.4414-1.9358-7.9582-1.9358-13.5504v-81.625h13.5504v83.3995c0,8.3883,3.3338,12.5825,10.0015,12.5825,6.2375,0,9.3563-4.1942,9.3563-12.5825v-83.3995h13.7117v81.625ZM691.362,185.2913l-5.9687-35.0052-5.8073,35.0052h11.776ZM714.5913,230.298h-14.357l-6.13-28.8753h-17.7446l-6.13,28.8753h-14.0343l22.4227-108.0806h13.5504l22.4227,108.0806Z" fill="#010101"/></g></svg>