<?xml version="1.0" encoding="UTF-8"?>
<svg id="Layer_2" data-name="Layer 2" xmlns="http://www.w3.org/2000/svg" viewBox="0 0 893.2065 866.042">
  <g id="text-safe-area">
    <rect x="149.1791" y="384.6707" width="594.8482" height="294.9111" fill="#010101"/>
  </g>
  <g id="shield-base">
    <g>
      <path id="path2939" d="M183.1572.6271L.7714,161.772c57.4576,32.458,96.2592,94.0865,96.2592,164.7852,0,34.8422-9.4575,67.4594-25.8943,95.4898-3.6034,6.1451-7.588,12.0365-11.8401,17.7132-1.7177,2.8573-3.396,5.7513-4.9912,8.6877-1.7678,3.2543-3.4535,6.5417-5.0663,9.8886-1.6127,3.3469-3.1444,6.7541-4.5971,10.1888-1.4527,3.4347-2.8213,6.8963-4.1093,10.414-1.288,3.5177-2.503,7.0809-3.6214,10.6767-1.1185,3.5958-2.152,7.2327-3.0961,10.9019-.944,3.6692-1.787,7.3705-2.5519,11.1083-.7648,3.7378-1.4456,7.5132-2.0265,11.3147-.5808,3.8015-1.0715,7.6419-1.4636,11.5023-.392,3.8604-.6834,7.7379-.8819,11.6524s-.3002,7.8574-.3002,11.8213.1018,7.9067.3002,11.8213.4898,7.792.8819,11.6524c.3921,3.8604.8828,7.7008,1.4636,11.5023.5809,3.8015,1.2617,7.5768,2.0265,11.3147.7649,3.7377,1.6079,7.4389,2.5519,11.1083.9441,3.6692,1.9776,7.306,3.0961,10.9019,1.1184,3.5959,2.3335,7.1593,3.6214,10.6767,1.288,3.5178,2.6566,6.9794,4.1093,10.414,1.4527,3.4347,2.9845,6.8418,4.5971,10.1888,1.6127,3.3466,3.2985,6.6343,5.0663,9.8886,1.7678,3.2543,3.6172,6.4688,5.5354,9.6259,1.9182,3.1567,3.9033,6.271,5.9669,9.3257,2.0637,3.0546,4.2129,6.0401,6.4173,8.9879,2.2044,2.9473,4.471,5.8519,6.8113,8.6877,2.3403,2.8358,4.7528,5.6121,7.2242,8.3312,2.4714,2.7191,5.0018,5.3768,7.5994,7.9747,2.5977,2.5975,5.2556,5.128,7.9747,7.5994,2.7191,2.4713,5.4954,4.8841,8.3312,7.2241,2.8357,2.3404,5.7401,4.607,8.6877,6.8113,2.9477,2.2043,5.9333,4.3536,8.988,6.4173s6.1688,4.0488,9.3257,5.9669c3.1569,1.9182,6.3716,3.7673,9.6259,5.5354,3.2543,1.7676,6.5418,3.4537,9.8886,5.0662,3.3469,1.6129,6.7542,3.1445,10.1889,4.5972,3.4347,1.4527,6.8963,2.8214,10.414,4.1093,1.6811.6157,3.4046,1.1494,5.1038,1.7263,4.2002,1.1774,8.4099,2.3246,12.6469,3.4151,4.8024,1.2352,9.619,2.4272,14.4671,3.5464,4.1012.9467,8.2311,1.8228,12.3654,2.6832.7528.1565,1.4982.3339,2.2517.4878,4.8921,1.0013,9.7952,1.952,14.7298,2.8334,4.9346.8815,9.9043,1.6976,14.8798,2.4581,4.9755.7599,9.9588,1.4637,14.9736,2.1016,5.0149.6372,10.0524,1.2128,15.105,1.7263,5.0526.5129,10.1288.9635,15.2175,1.351,4.8831.3712,9.7773.6652,14.6922.9194.3899,0,.7728-.0372,1.1634-.0372,4.4405,0,8.822.24,13.1723.6004,48.8096,4.0432,91.5319,30.2286,118.5508,67.813,27.0189-37.5844,69.7411-63.7697,118.5508-67.813,4.3503-.3604,8.7318-.6004,13.1723-.6004.3906,0,.7734.0372,1.1634.0372,4.915-.2542,9.8091-.5481,14.6922-.9194,5.0888-.3874,10.165-.8381,15.2176-1.351,5.0526-.5134,10.0901-1.0891,15.105-1.7263,5.0148-.6378,9.9981-1.3417,14.9737-2.1016,4.9755-.7606,9.9452-1.5767,14.8798-2.4581,4.9346-.8815,9.8377-1.8321,14.7297-2.8334.7535-.1539,1.4989-.3314,2.2517-.4878,4.1345-.8604,8.2643-1.7366,12.3655-2.6832,4.848-1.1192,9.6645-2.3112,14.467-3.5464,4.2368-1.0904,8.4467-2.2377,12.6468-3.4151,1.6992-.5769,3.4227-1.1106,5.1038-1.7263,3.5178-1.2879,6.9794-2.6566,10.414-4.1093,3.4347-1.4527,6.8419-2.9843,10.1888-4.5972,3.3467-1.6125,6.6343-3.2986,9.8886-5.0662,3.2543-1.768,6.469-3.6173,9.6259-5.5354,3.1567-1.9182,6.271-3.9033,9.3257-5.9669,3.0546-2.0637,6.0402-4.213,8.9879-6.4173,2.9476-2.2044,5.8519-4.4709,8.6877-6.8113,2.8358-2.3401,5.6121-4.7528,8.3312-7.2241,2.7191-2.4714,5.377-5.002,7.9747-7.5994,2.5976-2.5979,5.128-5.2557,7.5994-7.9747,2.4713-2.7192,4.8839-5.4955,7.2241-8.3312,2.3404-2.8358,4.607-5.7403,6.8113-8.6877,2.2043-2.9479,4.3536-5.9334,6.4173-8.9879,2.0637-3.0547,4.0488-6.169,5.9669-9.3257,1.9182-3.1572,3.7675-6.3717,5.5354-9.6259,1.7677-3.2544,3.4535-6.542,5.0662-9.8886,1.6127-3.3471,3.1445-6.7542,4.5972-10.1888,1.4527-3.4348,2.8213-6.8961,4.1093-10.414,1.288-3.5175,2.5031-7.0809,3.6214-10.6767,1.1184-3.5959,2.152-7.2327,3.0961-10.9018.944-3.6693,1.7869-7.3705,2.5519-11.1083.7647-3.7379,1.4456-7.5132,2.0265-11.3147.5807-3.8015,1.0715-7.6418,1.4635-11.5023.3921-3.8605.6835-7.7379.8819-11.6524.1984-3.9146.3002-7.8574.3002-11.8213s-.1018-7.9068-.3002-11.8213c-.1984-3.9146-.4898-7.792-.8819-11.6524-.3921-3.8605-.8828-7.7008-1.4635-11.5023-.5809-3.8015-1.2618-7.5769-2.0265-11.3147-.765-3.7378-1.6079-7.4391-2.5519-11.1083-.9442-3.6692-1.9776-7.306-3.0961-10.9019-1.1184-3.5959-2.3335-7.159-3.6214-10.6767-1.288-3.5177-2.6566-6.9793-4.1093-10.414-1.4527-3.4347-2.9844-6.842-4.5972-10.1888-1.6126-3.3469-3.2984-6.6344-5.0662-9.8886-1.5953-2.9365-3.2735-5.8304-4.9913-8.6877-4.2521-5.6767-8.2366-11.5681-11.8401-17.7132-16.4368-28.0304-25.8943-60.6476-25.8943-95.4898,0-70.6987,38.8015-132.3272,96.2592-164.7852L710.0493.6271c-34.0868,33.2511-80.3428,54.0402-131.7231,54.0402-51.2085,0-97.667-20.9857-131.7231-54.0402-34.0561,33.0545-80.5145,54.0402-131.7231,54.0402-51.3803,0-97.6363-20.7891-131.7231-54.0402h.0001Z" fill="#fff" stroke="#010101" stroke-width=".9"/>
      <path id="path2939-4" d="M446.6033,27.6847c-35.9102,29.1983-81.7788,47.2477-131.7231,47.2477-50.0425,0-95.86-17.9068-131.7794-47.2289L34.0024,159.4453c50.5844,38.2526,83.2933,98.9634,83.2933,167.1119,0,38.5093-10.4992,74.7131-28.6901,105.735-3.7836,6.4524-7.9148,12.5468-12.2341,18.3887-1.4967,2.501-2.9335,4.9904-4.2594,7.4305v.0187c-1.6118,2.9677-3.1689,5.9649-4.6347,9.0067-1.4562,3.0221-2.8494,6.1319-4.1843,9.2882-1.3285,3.1411-2.5638,6.2796-3.7341,9.4758-1.1837,3.2328-2.2927,6.4921-3.3025,9.7385-1.0191,3.2764-1.9734,6.584-2.8333,9.9261-.8499,3.3036-1.6025,6.6667-2.308,10.1138-.701,3.4259-1.3313,6.8754-1.8576,10.3202-.5304,3.4717-.9754,6.9754-1.3323,10.4891-.3562,3.5077-.6249,7.0506-.8068,10.6392-.1813,3.5772-.2627,7.1723-.2627,10.7893s.0814,7.212.2627,10.7893c.1819,3.5885.4506,7.1315.8068,10.6392.3569,3.5137.8018,7.0174,1.3323,10.4891.5264,3.4448,1.1566,6.8753,1.8576,10.3014.7055,3.4471,1.458,6.8287,2.308,10.1325.86,3.3421,1.8143,6.6496,2.8333,9.9261,1.0097,3.2465,2.1189,6.5062,3.3025,9.7385,1.1702,3.196,2.4055,6.3345,3.7341,9.4758,1.3349,3.1559,2.7279,6.2653,4.1843,9.2882,1.4685,3.0472,3.0201,6.0344,4.6347,9.0067,1.61,2.9638,3.2789,5.9015,5.0287,8.7815,1.7678,2.9093,3.58,5.7445,5.4415,8.5001l.0751.1125c1.8173,2.6854,3.7491,5.3724,5.7793,8.0873,2.0381,2.7251,4.1056,5.3859,6.2108,7.9372,2.1048,2.5503,4.2991,5.0664,6.5487,7.543l.0751.0564c2.2613,2.488,4.56,4.8974,6.9239,7.2617,2.3637,2.3633,4.7923,4.6814,7.2804,6.9426l.1876.1689c2.4354,2.2086,4.9065,4.3499,7.4118,6.4173,2.5505,2.1051,5.1934,4.1728,7.9184,6.2109,2.751,2.0571,5.4778,4.0153,8.1998,5.8544,2.7557,1.8617,5.5912,3.6741,8.5001,5.4415,2.8787,1.7493,5.8164,3.4367,8.7815,5.0475,2.9738,1.6153,5.9612,3.1485,9.0067,4.6159,3.0212,1.4559,6.1316,2.849,9.2881,4.1844,3.1413,1.3286,6.299,2.5827,9.4946,3.7528.9108.3334,2.4019.797,4.1093,1.3698,3.9341,1.1001,7.8432,2.1716,11.7274,3.1711,4.6826,1.2047,9.3189,2.3624,13.9604,3.4338,3.8603.8911,7.8572,1.7411,11.9339,2.5894h.0186c1.1152.2321,1.8489.402,2.1766.4691,4.7547.9729,9.4838,1.893,14.2231,2.7395,4.7474.8481,9.5643,1.6262,14.392,2.3643,4.8253.7368,9.6365,1.4309,14.467,2.0453,4.8455.6156,9.7136,1.1737,14.5984,1.67v-.0186c4.8765.495,9.7786.9392,14.6922,1.3135,4.4838.3408,9.0341.6029,13.6414.8444.1042-.0102-.2988-.0186.6755-.0186,5.1709,0,10.1142.2838,14.8423.6755,45.9355,3.8051,86.9332,24.9893,116.8807,56.4233,29.9476-31.434,70.9452-52.6181,116.8808-56.4233,4.7281-.3917,9.6713-.6755,14.8423-.6755.9744,0,.5713.0084.6755.0186,4.6073-.2415,9.1576-.5036,13.6414-.8444,4.9136-.3743,9.8156-.8185,14.6922-1.3135v.0186c4.8849-.4963,9.7528-1.0543,14.5984-1.67,4.8306-.6144,9.6417-1.3084,14.467-2.0453,4.8275-.7381,9.6445-1.5162,14.392-2.3643,4.7393-.8465,9.4684-1.7665,14.2231-2.7395.3278-.0671,1.0614-.237,2.1766-.4691h.0186c4.0768-.8483,8.0736-1.6984,11.9339-2.5894,4.6415-1.0715,9.2779-2.2292,13.9604-3.4338,3.8844-.9995,7.7934-2.0709,11.7275-3.1711,1.7074-.5727,3.1985-1.0363,4.1093-1.3698,3.1957-1.17,6.3533-2.4242,9.4946-3.7528,3.1565-1.3352,6.2669-2.7285,9.2882-4.1844,3.0455-1.4674,6.0328-3.0006,9.0067-4.6159,2.9651-1.6108,5.9028-3.2983,8.7815-5.0475,2.9089-1.7673,5.7444-3.5798,8.5001-5.4415,2.722-1.8391,5.4488-3.7972,8.1999-5.8544,2.725-2.0381,5.3679-4.1059,7.9184-6.2109,2.5053-2.0673,4.9763-4.2087,7.4118-6.4173l.1877-.1689c2.4881-2.2613,4.9167-4.5793,7.2804-6.9426,2.3639-2.3643,4.6626-4.7737,6.9239-7.2617l.0751-.0564c2.2496-2.4767,4.4438-4.9928,6.5486-7.543,2.1053-2.5512,4.1728-5.2121,6.2109-7.9372,2.0302-2.7148,3.9621-5.4019,5.7793-8.0873l.0751-.1125c1.8614-2.7557,3.6737-5.5909,5.4416-8.5001,1.7498-2.88,3.4187-5.8178,5.0287-8.7815,1.6145-2.9723,3.1662-5.9595,4.6347-9.0067,1.4565-3.0228,2.8495-6.1322,4.1844-9.2882,1.3286-3.1414,2.5638-6.2799,3.734-9.4758,1.1835-3.2323,2.2927-6.492,3.3025-9.7385,1.019-3.2764,1.9733-6.584,2.8334-9.9262.8499-3.3039,1.6026-6.6854,2.308-10.1326.7011-3.4261,1.3313-6.8567,1.8576-10.3014.5304-3.4717.9754-6.9754,1.3322-10.4891.3561-3.5077.6249-7.0506.8069-10.6392.1813-3.5772.2627-7.1723.2627-10.7893s-.0814-7.212-.2627-10.7893c-.1819-3.5885-.4506-7.1315-.8069-10.6392-.3569-3.5137-.8019-7.0174-1.3322-10.4891-.5263-3.4448-1.1565-6.8943-1.8576-10.3202-.7054-3.4471-1.458-6.8102-2.308-10.1138-.8599-3.3421-1.8142-6.6497-2.8334-9.9261-1.0097-3.2464-2.1188-6.5057-3.3025-9.7385-1.1703-3.1962-2.4056-6.3347-3.734-9.4758-1.335-3.1562-2.7281-6.266-4.1844-9.2882-1.4658-3.0419-3.0229-6.039-4.6347-9.0067v-.0187c-1.3259-2.4401-2.7627-4.9295-4.2594-7.4305-4.3193-5.8419-8.4505-11.9363-12.2341-18.3887-18.191-31.0218-28.6901-67.2256-28.6901-105.735,0-68.1485,32.7089-128.8593,83.2933-167.1119L710.1057,27.7035c-35.9194,29.3222-81.7369,47.2289-131.7794,47.2289-49.9442,0-95.8129-18.0493-131.7231-47.2477h0ZM446.6033,53.0536c37.1799,26.2269,82.6501,42.1439,131.7043,42.1439,48.6316,0,93.7392-15.4921,130.7474-41.3558l119.1887,105.2846c-44.6631,41.9406-72.6166,101.5846-72.6166,167.4309,0,42.1927,11.536,81.9586,31.486,115.9801,3.9706,6.7713,8.2291,13.0652,12.5906,19.0267,1.1529,1.9364,2.2382,3.8107,3.2274,5.6104l.3378.6192c1.4931,2.7493,2.9137,5.4678,4.2031,8.1436,1.2904,2.678,2.5467,5.4915,3.7716,8.3875,1.1976,2.8313,2.2988,5.6428,3.3588,8.5376,1.0767,2.9409,2.0811,5.8993,2.9835,8.8003.936,3.0092,1.8083,5.9877,2.5707,8.9504.7422,2.8852,1.4072,5.9093,2.064,9.1193.6438,3.1454,1.2221,6.2717,1.6888,9.3257.4784,3.1319.8782,6.2993,1.2009,9.4758.3211,3.1618.5667,6.3712.7318,9.6259.1621,3.1978.2252,6.4442.2252,9.7573s-.0631,6.5595-.2252,9.7573c-.1649,3.2547-.4107,6.4641-.7318,9.6259-.3227,3.1765-.7225,6.3439-1.2009,9.4758-.4649,3.043-1.042,6.1278-1.6888,9.2882-.6598,3.2242-1.3263,6.2892-2.064,9.1568-.7625,2.9632-1.6347,5.9415-2.5707,8.9504-.9022,2.9009-1.9068,5.86-2.9835,8.8003-1.0598,2.8943-2.1612,5.7061-3.3588,8.5376-1.2246,2.8954-2.4805,5.7081-3.7716,8.3875-1.2932,2.6838-2.7075,5.3714-4.2031,8.1248-1.4873,2.7379-2.9973,5.3967-4.5409,7.9372h.0186c-1.6105,2.6506-3.2494,5.2072-4.9162,7.6745l-.0372.0564-.0378.0564-.0751.1126c-1.5783,2.3279-3.2878,4.7081-5.1413,7.1866-1.8907,2.5281-3.7814,4.9473-5.6292,7.1866h.0186c-1.6923,2.0505-3.5084,4.1118-5.3665,6.1733l-.638.6943c-2.0442,2.2492-4.1081,4.4081-6.2484,6.5486-2.1151,2.1147-4.2933,4.1929-6.5111,6.2109-.0264.024-.0493.051-.0751.0751l-.1126.0938-.0372.0372-.0186.0186c-2.211,2.005-4.4465,3.9396-6.6987,5.7981-2.2746,1.8773-4.6565,3.7463-7.1491,5.6104-2.547,1.9045-5.0172,3.6736-7.4118,5.2914-2.4677,1.6671-5.0249,3.3063-7.6745,4.9162-2.5929,1.5755-5.2545,3.1023-7.9372,4.5596-2.6981,1.4656-5.3834,2.8446-8.1248,4.1657-2.6761,1.2895-5.4907,2.5463-8.3875,3.7716-2.8676,1.2129-5.7228,2.352-8.5751,3.3963.0903-.0331-1.4735.4845-3.0585,1.0133-3.6996,1.0327-7.3391,2.02-10.8643,2.9272-4.5916,1.1809-9.0481,2.3041-13.4538,3.3212-2.9882.6896-6.2293,1.378-9.4946,2.064l-1.3135.2815c-.2472.0517-.4646.0984-.713.1501h-.0186c-1.3122.2732-2.5556.5431-2.1016.4503-4.6261.9469-9.1812,1.8356-13.7165,2.6457-4.5242.8082-9.1894,1.5496-13.9041,2.2704-4.715.72-9.3537,1.4031-13.9604,1.9889-4.1699.5299-8.3574.9879-12.5531,1.4261l-1.5386.1501c-4.725.4797-9.4527.9168-14.1668,1.2759-.006,0-.0126-.0004-.0186,0-3.8305.2911-7.8351.5135-11.9151.7318-.8223-.0474-.4867.0372-.8631.0372-5.9126,0-11.4288.3295-16.5123.7506-43.954,3.641-83.786,21.6077-115.192,48.7113-31.406-27.1035-71.238-45.0702-115.192-48.7113-5.0835-.4211-10.5998-.7506-16.5123-.7506-.3765,0-.0408-.0845-.8631-.0372-4.08-.2184-8.0847-.4407-11.9152-.7318-.006-.0004-.0126,0-.0186,0-4.7141-.3592-9.4417-.7962-14.1668-1.2759l-1.5386-.1501c-4.1957-.4381-8.3833-.8962-12.5531-1.4261-4.6067-.5858-9.2454-1.269-13.9604-1.9889-4.7146-.7209-9.3798-1.4623-13.9041-2.2704-4.5352-.8101-9.0904-1.6989-13.7165-2.6457.4541.0929-.7894-.1771-2.1016-.4503h-.0186c-.2485-.0517-.4658-.0984-.713-.1501l-1.3135-.2815c-3.2652-.6861-6.5064-1.3744-9.4946-2.064-4.4057-1.0171-8.8621-2.1403-13.4537-3.3212-3.5253-.9072-7.1647-1.8946-10.8644-2.9272-1.5851-.5289-3.1488-1.0462-3.0585-1.0133-2.8523-1.0443-5.7075-2.1834-8.5752-3.3963-2.8967-1.2252-5.7113-2.482-8.3875-3.7716-2.7413-1.321-5.4268-2.7-8.1248-4.1657-2.6826-1.4573-5.3442-2.9841-7.9371-4.5596-2.6495-1.6099-5.2068-3.2491-7.6745-4.9162-2.3946-1.6178-4.8648-3.3869-7.4117-5.2914-2.4926-1.8642-4.8744-3.7331-7.1491-5.6104-2.2522-1.8587-4.4877-3.7931-6.6987-5.7981l-.0186-.0186-.0372-.0372-.1126-.0938c-.0258-.024-.0486-.051-.0751-.0751-2.2178-2.018-4.3962-4.0962-6.5111-6.2109-2.1402-2.1406-4.204-4.2995-6.2484-6.5486l-.638-.6943c-1.858-2.0615-3.6743-4.1229-5.3665-6.1733h.0186c-1.8479-2.2393-3.7385-4.6585-5.6292-7.1866-1.8535-2.4785-3.563-4.8587-5.1413-7.1866l-.0751-.1126-.0372-.0564-.0372-.0564c-1.6668-2.4673-3.3056-5.0238-4.9162-7.6745h.0186c-1.5436-2.5404-3.0535-5.1992-4.5409-7.9372-1.4957-2.7534-2.9098-5.441-4.2031-8.1248-1.291-2.6793-2.547-5.4921-3.7716-8.3875-1.1976-2.8315-2.2989-5.6433-3.3587-8.5376-1.0766-2.9404-2.0813-5.8994-2.9835-8.8003-.9359-3.0089-1.8081-5.9872-2.5706-8.9504-.7377-2.8676-1.4042-5.9326-2.064-9.1568-.6467-3.1603-1.2238-6.2452-1.6888-9.2882-.4785-3.1319-.8782-6.2993-1.2009-9.4758-.3211-3.1618-.5668-6.3712-.7318-9.6259-.1621-3.1978-.2252-6.4442-.2252-9.7573s.063-6.5595.2252-9.7573c.165-3.2547.4107-6.4641.7318-9.6259.3227-3.1765.7224-6.3439,1.2009-9.4758.4667-3.054,1.0451-6.1803,1.6888-9.3257.6569-3.21,1.3218-6.2341,2.064-9.1193.7623-2.9627,1.6347-5.9412,2.5706-8.9504.9023-2.901,1.9067-5.8594,2.9835-8.8003,1.06-2.8949,2.1612-5.7063,3.3587-8.5376,1.2249-2.896,2.4812-5.7095,3.7716-8.3875,1.2895-2.6758,2.71-5.3943,4.2031-8.1436l.3374-.6192c.9893-1.7998,2.0745-3.674,3.2274-5.6104,4.3615-5.9615,8.62-12.2553,12.5906-19.0267,19.95-34.0215,31.4859-73.7874,31.4859-115.9801,0-65.8463-27.9536-125.4903-72.6166-167.4309l119.1887-105.2846c37.0082,25.8636,82.1157,41.3558,130.7473,41.3558,49.0542,0,94.5245-15.917,131.7043-42.1439h-.0012ZM321.0723,757.5469c.1111.0397.1112.0252.2439.0751.2118.0794.572.2524.8631.3753-.4431-.1944-.8285-.3487-1.107-.4503ZM572.1342,757.5469c-.2785.1017-.6639.256-1.1071.4503.2912-.1228.6513-.2959.8631-.3753.1327-.0498.1329-.0354.244-.0751ZM307.2996,757.5841c-1.0637.4243-3.4491,1.6676-3.8091,1.8576,0,0,.0751-.0751.0751-.0751-.0003.0001,2.5647-1.3705,3.3963-1.6888.1775-.0679.1785-.0366.3378-.0938ZM585.907,757.5841c.1593.0576.1602.0258.3378.0938.8316.3183,3.3965,1.6889,3.3962,1.6888,0,0,.0751.0751.0751.0751-.36-.19-2.7454-1.4334-3.809-1.8576ZM325.5382,759.8545c.0582.0361.3566.2064.3565.2064,0,0,2.5332,2.1017,2.5332,2.1016,0,0,.3443.4447.4503.5817-.7945-.6871-2.8972-2.5068-3.34-2.8897ZM567.6684,759.8545c-.4428.3828-2.5455,2.2026-3.34,2.8897.106-.137.4503-.5817.4503-.5817-.0001.0001,2.5332-2.1016,2.5331-2.1016,0,0,.2983-.1703.3566-.2064ZM298.6493,763.9826c-.6972,1.0772-1.2065,1.8568-2.0452,3.1523.4895-1.0281,1.0696-2.2329,1.0695-2.2329,0,0,.7049-.6649.9757-.9194ZM594.5571,763.9826c.2709.2546.9757.9194.9757.9194,0,0,.58,1.2047,1.0696,2.2329-.8387-1.2956-1.3481-2.0753-2.0453-3.1523ZM330.8296,765.2773c.3572.4615.9007,1.1633.9007,1.1633,0,0,.0861.2952.0938.319-.2577-.3798-.493-.7435-.9945-1.4824h0ZM562.377,765.2773c-.5015.7389-.7368,1.1025-.9945,1.4824.0078-.024.0939-.319.0939-.319,0,0,.5435-.7016.9007-1.1633h0ZM295.2906,769.9122c-.1112.7888-.3229,2.3063-.638,4.5409h-.1876c.1195-1.6095.2439-3.3214.2439-3.3212,0,0,.3988-.8355.5817-1.2197ZM597.9159,769.9122c.1829.3841.5818,1.2197.5816,1.2197,0,0,.1245,1.7118.244,3.3212h-.1876c-.3152-2.2346-.5268-3.7521-.638-4.5409ZM334.3009,774.303c0,.0072.0564.1689.0564.1689,0,0-.1243.8115-.1501.9945.0246-.3345.0892-1.0996.0939-1.1634h-.0002ZM558.9056,774.303c.006.0638.0692.8288.0939,1.1634-.0258-.183-.1501-.9945-.1501-.9945,0,0,.0564-.1616.0564-.1689h-.0002Z" fill="#010101"/>
      <path id="rect3889" d="M119.6599,264.0732h655.0757v20.2651H119.6599v-20.2651Z" fill="#010101"/>
      <path id="text2878" d="M231.939,230.298h-12.5825l-20.4869-64.0418v64.0418h-13.5504v-108.0806h13.5504l19.3577,58.8797v-58.8797h13.7117v108.0806ZM265.2101,230.298h-13.5504v-108.0806h13.5504v108.0806ZM307.5147,133.9934c-2.9037-.1075-5.3234,1.6131-7.2591,5.1621-1.8282,3.5489-3.065,16.0239-3.7102,37.4249.6452,20.003,1.9895,31.7789,4.0329,35.3278,2.0433,3.5489,4.6243,5.2158,7.7431,5.0007,4.7319,0,7.4205-3.4951,8.0657-10.4854h13.3891c0,8.2808-2.2046,14.6796-6.6139,19.1964-4.3017,4.4093-9.3562,6.6139-15.1635,6.6139-9.0336,0-15.3786-4.1404-19.0351-12.4212-3.6565-8.3884-5.5922-22.8529-5.8073-43.3935.2151-22.0463,2.3659-36.8872,6.4526-44.5227,4.0866-7.6355,10.2166-11.4533,18.3898-11.4533,5.3771,0,10.3241,2.1509,14.8409,6.4526,4.6244,4.1942,6.9365,10.1628,6.9365,17.9059h-13.3891c-.2151-7.0978-3.1725-10.7005-8.8723-10.8081h0ZM374.9844,185.2913l-5.9686-35.0052-5.8073,35.0052h11.7759ZM398.2136,230.298h-14.357l-6.13-28.8753h-17.7446l-6.13,28.8753h-14.0343l22.4227-108.0806h13.5504l22.4227,108.0806ZM455.8431,152.5445c-.1075,13.1202-4.3017,21.885-12.5825,26.2942l12.2599,51.4593h-13.873l-11.292-50.4914h-7.5818v50.4914h-13.5504v-108.0806h21.1322c7.2054,0,13.2815,2.6348,18.2285,7.9044,4.947,5.2696,7.3667,12.7438,7.2591,22.4227ZM441.8088,152.2219c0-5.4847-1.1292-9.5175-3.3876-12.0986-2.1509-2.581-5.0545-3.8715-8.711-3.8715h-6.9365v29.6818h8.0657c3.4414-.3226,6.13-1.7207,8.0657-4.1942,1.9358-2.4735,2.9037-5.646,2.9037-9.5175ZM501.858,185.2913l-5.9686-35.0052-5.8073,35.0052h11.7759ZM525.0873,230.298h-14.357l-6.13-28.8753h-17.7446l-6.13,28.8753h-14.0343l22.4227-108.0806h13.5504l22.4227,108.0806ZM559.6489,133.9934c-2.9037-.1075-5.3234,1.6131-7.2592,5.1621-1.8282,3.5489-3.065,16.0239-3.7102,37.4249.6453,20.003,1.9895,31.7789,4.0329,35.3278,2.0433,3.5489,4.6243,5.2158,7.7431,5.0007,4.7319,0,7.4205-3.4951,8.0657-10.4854v-14.357h-9.0336v-14.357h22.4227v28.7139c0,8.2808-2.2046,14.6796-6.6139,19.1964-4.3017,4.4093-9.3562,6.6139-15.1636,6.6139-9.0336,0-15.3786-4.1404-19.0351-12.4212-3.6564-8.3884-5.5922-22.8529-5.8073-43.3935.2151-22.0463,2.3659-36.8872,6.4526-44.5227,4.0867-7.6355,10.2165-11.4533,18.3898-11.4533,5.3772,0,10.3241,2.1509,14.8409,6.4526,4.6244,4.1942,6.9365,10.1628,6.9365,17.9059h-13.3891c-.2151-7.0978-3.1725-10.7005-8.8723-10.8081h0ZM644.5405,203.8425c0,6.9903-1.1292,12.6363-3.3876,16.938-4.0866,7.6356-10.6467,11.4533-19.6803,11.4533-10.7543,0-17.9596-4.947-21.6161-14.8409-1.2905-3.4414-1.9358-7.9582-1.9358-13.5504v-81.625h13.5504v83.3995c0,8.3883,3.3338,12.5825,10.0015,12.5825,6.2375,0,9.3563-4.1942,9.3563-12.5825v-83.3995h13.7117v81.625ZM691.362,185.2913l-5.9687-35.0052-5.8073,35.0052h11.776ZM714.5913,230.298h-14.357l-6.13-28.8753h-17.7446l-6.13,28.8753h-14.0343l22.4227-108.0806h13.5504l22.4227,108.0806Z" fill="#010101"/>
    </g>
  </g>
  <g id="road-number-sample">
    <path id="text2891" d="M289.5394,655.5321h-30.1534l-49.0959-153.473v153.473h-32.4729v-259.0098h32.4729l46.3898,141.1024v-141.1024h32.8595v259.0098ZM371.8816,655.5321h-32.4729v-259.0098h32.4729v259.0098ZM475.8723,424.7427c-6.9585-.2577-12.7572,3.8658-17.3962,12.3706-4.3812,8.5048-7.3451,38.4005-8.8914,89.687,1.5463,47.9362,4.7678,76.1566,9.6645,84.6614,4.8967,8.5048,11.082,12.4994,18.5559,11.984,11.3398,0,17.7827-8.3759,19.3291-25.1278h32.0863c0,19.8445-5.2832,35.1789-15.8498,46.0032-10.3088,10.5666-22.4217,15.8498-36.3387,15.8498-21.6486,0-36.8541-9.9223-45.6166-29.7668-8.7625-20.1023-13.4015-54.7657-13.917-103.9905.5154-52.8329,5.6699-88.3984,15.4633-106.6966,9.7934-18.2982,24.4835-27.4473,44.0703-27.4473,12.8861,0,24.7412,5.1545,35.5655,15.4633,11.082,10.0512,16.623,24.3546,16.623,42.9106h-32.0863c-.5154-17.0096-7.6028-25.6433-21.262-25.901ZM637.4635,544.5831h-80.7956v-33.6326h80.7956v33.6326ZM720.5782,655.5321h-32.8594v-213.0066h-20.8755v-29.3802c13.1438-1.5463,23.0661-7.0873,29.7668-16.623h23.9681v259.0099Z" fill="#010101"/>
  </g>
</svg>